<svg width="724" height="244" viewBox="0 0 724 244" fill="none" xmlns="http://www.w3.org/2000/svg">
<path d="M85.8001 77.85C81.3201 78.65 76.9234 78.28 72.6101 76.74C72.3038 76.6359 72.0354 76.4407 71.8401 76.18C69.7134 73.4133 68.0867 70.3533 66.9601 67" stroke="#344317" stroke-width="2"/>
<path d="M116 6.29004C110.953 7.51671 106.19 9.42004 101.71 12" stroke="#2B7924" stroke-width="2"/>
<path d="M101.71 12L97.75 14.21" stroke="#267521" stroke-width="2"/>
<path d="M97.75 14.21C88.3434 19.9633 80.6434 27.43 74.65 36.61" stroke="#2B7924" stroke-width="2"/>
<path d="M74.65 36.6099L70.79 45.2499" stroke="#267521" stroke-width="2"/>
<path d="M70.7901 45.25C66.8001 56.11 69.1401 63.01 71.9401 73.88C72.0355 74.2407 72.2313 74.5662 72.5043 74.8179C72.7772 75.0696 73.1159 75.2369 73.4801 75.3C82.2801 76.85 88.1001 74.31 95.9701 70.32C104.77 65.85 110.79 58.57 115.16 49.92C119.66 41.01 120.47 29.18 120.95 19.04" stroke="#2B7924" stroke-width="2"/>
<path d="M120.95 19.04C121.263 18.08 121.267 16.9833 120.96 15.75" stroke="#267521" stroke-width="2"/>
<path d="M120.96 15.75L120.21 7.75" stroke="#2B7924" stroke-width="2"/>
<path d="M120.21 7.74992L119.67 6.24992C119.618 6.10591 119.518 5.9843 119.387 5.90586C119.256 5.82743 119.101 5.79705 118.95 5.81992L116 6.28992" stroke="#267521" stroke-width="2"/>
<path d="M120.21 7.74999C118.52 7.23999 111.15 15.48 109.84 16.85C109.427 17.2833 109.503 17.4033 110.07 17.21C114.05 15.8633 117.68 15.3767 120.96 15.75" stroke="#409C39" stroke-width="2"/>
<path d="M120.95 19.0399C116.877 18.3199 112.937 18.6199 109.13 19.9399C101.85 22.4499 94.04 33.6799 90.03 40.0299C89.6567 40.6232 89.7734 40.7465 90.38 40.3999C96.95 36.6999 108.55 31.7599 116.21 32.5999C117.563 32.7532 117.673 33.2065 116.54 33.9599C115.807 34.4532 114.707 34.8132 113.24 35.0399C104.5 36.4199 96.15 39.0732 88.19 42.9999C87.9769 43.1049 87.7891 43.2166 87.6416 43.3259C87.494 43.4353 87.3908 43.5394 87.34 43.6299L77.37 61.1499C76.9367 61.9099 77.14 62.1165 77.98 61.7699C86.9467 58.0565 96.2834 55.7799 105.99 54.9399C106.158 54.9272 106.323 54.9494 106.474 55.0048C106.625 55.0603 106.757 55.1475 106.86 55.2599C107.56 56.0199 107.27 56.5165 105.99 56.7499C95.67 58.6632 86.26 61.2532 77.76 64.5199C76.2867 65.0865 75.1367 66.3532 74.31 68.3199C73.18 70.9899 72.03 68.9399 72.58 67.3199C73.2734 65.2799 73.3134 63.2832 72.7 61.3299C71.38 57.1499 71.97 52.1899 71.99 47.8499C72 46.7399 72.53 45.2399 70.79 45.2499" stroke="#409C39" stroke-width="2"/>
<path d="M74.65 36.6099C75.13 44.6699 75.2067 52.4299 74.88 59.8899C74.8334 60.9032 75.0634 60.9666 75.57 60.0799C78.87 54.2799 81.89 47.6899 85.22 42.5799C89.0134 36.7532 93.1867 31.1999 97.74 25.9199C97.9536 25.6807 98.0804 25.3742 98.1 25.0499C98.2134 23.1832 98.54 20.0899 99.08 15.7699C99.22 14.6832 98.7767 14.1632 97.75 14.2099" stroke="#409C39" stroke-width="2"/>
<path d="M101.71 12L100.95 20.25C100.777 22.1367 101.327 22.4034 102.6 21.05C106.393 17.0167 110.51 13.0234 114.95 9.07004C115.86 8.26004 118.21 7.53004 116 6.29004" stroke="#409C39" stroke-width="2"/>
<path d="M46.24 118.51C42.88 119.07 39.8 120.387 37 122.46" stroke="#734730" stroke-width="2"/>
<path d="M37 122.46C31.11 124.43 26.95 125.27 21.83 130.32C3.58005 148.32 2.18005 178.38 10.96 201" stroke="#996B54" stroke-width="2"/>
<path d="M10.9601 201C18.5501 220.09 35.1701 234.98 55.9501 237.53C65.9001 238.75 76.1301 232.57 84.2501 227.46" stroke="#9C735E" stroke-width="2"/>
<path d="M84.25 227.46C87.35 226.8 90.2667 225.66 93 224.04" stroke="#734730" stroke-width="2"/>
<path d="M93 224.04L255.92 148.19C256.689 147.832 257.327 147.256 257.75 146.54C265.297 133.82 268.783 120.057 268.21 105.25" stroke="#7F533C" stroke-width="2"/>
<path d="M268.21 105.25L268.32 103.87" stroke="#7A4B33" stroke-width="2"/>
<path d="M268.32 103.87C266.55 83.0498 255.06 56.6498 233.72 49.7498C224.57 46.7898 215.48 44.7898 206.76 48.5198C172.75 63.0598 139.46 78.7198 105.79 94.1198C105.539 94.2344 105.265 94.2887 104.991 94.2783C104.716 94.2679 104.449 94.193 104.21 94.0598C95.7301 89.3998 86.3301 85.9198 78.3501 81.4598C66.8368 75.0331 55.1601 68.6531 43.3201 62.3198C43.1418 62.2251 42.939 62.1895 42.7424 62.2184C42.5457 62.2473 42.3659 62.339 42.2301 62.4798C40.2968 64.4531 39.0534 66.7931 38.5001 69.4998C38.479 69.597 38.5133 69.7147 38.598 69.8355C38.6827 69.9562 38.8132 70.0735 38.9701 70.1698C48.2501 75.9765 63.6168 85.3098 85.0701 98.1698C89.8201 101.02 86.4601 102.32 83.7201 103.49C71.3934 108.77 58.9001 113.776 46.2401 118.51" stroke="#7F533C" stroke-width="2"/>
<path d="M268.32 103.87C265.927 103.95 263.043 104.62 259.67 105.88C245.023 111.347 232.027 117.37 220.68 123.95C220.527 124.041 220.396 124.154 220.298 124.282C220.199 124.41 220.135 124.549 220.11 124.69C220.003 125.357 220.39 125.467 221.27 125.02C237.503 116.86 253.15 110.27 268.21 105.25" stroke="#A16A4D" stroke-width="2"/>
<path d="M93 224.04C92.6867 224.027 92.4667 223.92 92.34 223.72C92.2802 223.619 92.2626 223.479 92.2892 223.318C92.3159 223.156 92.3856 222.98 92.49 222.81C115.28 185.68 90.73 125.32 46.24 118.51" stroke="#9A654A" stroke-width="2"/>
<path d="M84.25 227.46C99.84 208.86 99.72 187.89 92.24 165.51C85.23 144.57 67.6 123.74 44 122.21" stroke="#B7866C" stroke-width="2"/>
<path d="M44 122.21L37 122.46" stroke="#B47E62" stroke-width="2"/>
<path d="M44 122.21C43.2667 123.297 42.3167 124 41.15 124.32C32.02 126.81 22.64 135.16 18.15 143.75C10.67 158.09 9.22001 176.64 13.45 192.24C16.17 202.26 24.97 212.48 32.79 218.63C40.45 224.65 60.39 232.76 68.79 224.66C84.81 209.21 86.92 193.82 80.67 172.88C76.71 159.61 71.69 148.83 62.03 138.98C57 133.84 52.55 135.3 46.03 137.88C39.85 140.33 37.5 140.98 33.57 144.8C27.14 151.04 23.86 156.54 22.26 165.68C19.75 179.99 21.85 193.48 30.14 205.85C36.48 215.3 55.22 227.06 63.64 211.94C68.43 203.34 67.99 194.54 68.02 184.99C68.05 175.55 65.48 167.24 61.52 158.94C57.06 149.58 54 146.7 43.58 151.7C42.6134 152.16 41.8833 152.867 41.39 153.82C36.0567 164.14 34.5333 175.03 36.82 186.49C38.23 193.61 42.27 200.86 50.27 202.53C52.2567 202.95 53.7967 202.303 54.89 200.59C60.66 191.54 55.78 178.73 50.81 170.83C50.7289 170.701 50.6138 170.597 50.4778 170.53C50.3417 170.463 50.1901 170.435 50.04 170.45C41.25 171.35 43.63 184.12 47.88 188.47C48.0512 188.647 48.2454 188.785 48.4248 188.857C48.6041 188.929 48.7558 188.93 48.85 188.86C49.9167 188.013 50.3733 186.89 50.22 185.49C50.2013 185.3 50.1548 185.125 50.0849 184.981C50.0149 184.838 49.9238 184.731 49.82 184.67L48.09 183.65C47.9386 183.557 47.8208 183.424 47.7612 183.279C47.7016 183.133 47.7047 182.987 47.77 182.87C49.51 179.71 55.73 188.27 49.46 190.95C49.1639 191.073 48.8334 191.083 48.53 190.98C39.41 187.81 39 166.11 50.98 168.62C51.2982 168.685 51.5927 168.857 51.82 169.11C56.49 174.4 60.43 187.07 59.6 193.87C57.72 209.29 43.6 206.58 38.05 196.19C31.32 183.59 31.34 168.86 36.8 155.7C39.9 148.24 43.25 146.87 51.25 145.98C62.8 144.7 70.32 170.29 71.15 178.3C72.66 192.93 70.79 230.9 44.19 220.5C29.15 214.62 21.78 201.78 18.34 186.74C17.1 181.33 17.37 174.59 17.76 169.49C18.92 154.13 27.06 140.71 41.4 134.86C51.02 130.94 57.47 127.56 65.53 135.34C82 151.23 92.26 181.28 86.62 203.61C84.33 212.66 78.57 220.15 72.07 226.82C67.97 231.027 63.03 232.743 57.25 231.97C35.84 229.09 21.2 217.47 11.49 198.52C11.3233 198.193 11.16 198.193 11 198.52C10.6533 199.24 10.64 200.067 10.96 201" stroke="#DDAA90" stroke-width="2"/>
<path d="M257.4 83.8699C255.94 83.1399 244.48 88.2099 244.5 89.3199C244.501 89.3783 244.522 89.4334 244.561 89.4809C244.6 89.5285 244.656 89.5672 244.725 89.5942C244.793 89.6212 244.872 89.6358 244.957 89.6368C245.041 89.6377 245.127 89.6251 245.21 89.5999C245.82 89.4099 260.43 85.3699 257.4 83.8699Z" stroke="#A16A4D" stroke-width="2"/>
<path d="M257.26 91.81C256.75 89.76 250.48 93.77 249.94 93.93C247.96 94.52 235.71 98.38 235.13 99.67C234.977 100.017 235.113 100.137 235.54 100.03C240.64 98.74 253.69 96.45 256.99 92.7C257.107 92.5668 257.193 92.4162 257.24 92.2611C257.287 92.106 257.294 91.9512 257.26 91.81Z" stroke="#A16A4D" stroke-width="2"/>
<path d="M262.52 97.0599C262.367 96.3133 261.757 96.1666 260.69 96.6199C250.33 101.02 238.353 106.42 224.76 112.82C224.64 112.88 223.3 114.26 224.76 113.68C236.053 109.18 247.227 104.42 258.28 99.3999C259.39 98.8899 261.04 98.8299 262.19 97.8899C262.319 97.7852 262.418 97.6524 262.476 97.5059C262.535 97.3595 262.55 97.2052 262.52 97.0599Z" stroke="#A16A4D" stroke-width="2"/>
<path d="M139.84 98.85C139.575 98.7469 139.284 98.7434 139.02 98.84C116.4 106.76 96.1301 118.26 74.7401 128.81C74.5716 128.893 74.4267 129 74.3185 129.122C74.2103 129.244 74.1421 129.378 74.1201 129.51C73.6701 132.3 93.1501 122.78 96.1701 121.21C110.277 113.883 124.81 107.51 139.77 102.09C141.78 101.36 142.16 99.76 139.84 98.85Z" stroke="#A16A4D" stroke-width="2"/>
<path d="M77.0601 123.56C85.5734 119.133 95.8401 114.277 107.86 108.99C110.34 107.91 107.94 107.14 106.69 107.67C96.3968 112.11 86.3968 117.15 76.6901 122.79C76.5468 122.875 76.4312 122.99 76.3635 123.116C76.2959 123.243 76.2805 123.371 76.3201 123.48C76.4068 123.747 76.6534 123.773 77.0601 123.56Z" stroke="#A16A4D" stroke-width="2"/>
<path d="M235.67 123.36C243.85 118.833 252.407 115.193 261.34 112.44C262.22 112.17 263.74 111.13 262.2 110.34C261.931 110.205 261.593 110.187 261.26 110.29C252.033 113.23 243.313 117.217 235.1 122.25C233.57 123.19 233.48 124.58 235.67 123.36Z" stroke="#A16A4D" stroke-width="2"/>
<path d="M85.34 138.12C85.7134 138.6 85.9967 138.79 86.19 138.69C101.81 130.68 115.84 122.5 133.03 114.78C133.188 114.711 133.329 114.615 133.444 114.5C133.559 114.385 133.646 114.252 133.7 114.11C134.32 112.38 132.99 112.28 131.81 112.8C115.61 120 100.6 129.08 85.36 138.03C85.3522 138.034 85.3454 138.04 85.34 138.047C85.3346 138.054 85.3309 138.062 85.3289 138.07C85.327 138.079 85.327 138.088 85.329 138.096C85.3309 138.105 85.3346 138.113 85.34 138.12Z" stroke="#A16A4D" stroke-width="2"/>
<path d="M103.79 141.09C100.937 141.883 98.44 143.283 96.3 145.29C96.2549 145.333 96.217 145.383 96.1888 145.436C96.1606 145.49 96.1426 145.546 96.136 145.602C96.1294 145.657 96.1344 145.711 96.1506 145.758C96.1668 145.806 96.1938 145.848 96.23 145.88C96.52 146.13 106.41 142.59 104.74 141.2C104.636 141.114 104.494 141.059 104.328 141.04C104.162 141.02 103.977 141.038 103.79 141.09Z" stroke="#A16A4D" stroke-width="2"/>
<path d="M98.69 218.08C98.7004 218.121 98.7178 218.159 98.7411 218.193C98.7644 218.226 98.7929 218.254 98.8246 218.274C98.8562 218.295 98.8902 218.306 98.9241 218.309C98.9579 218.312 98.9907 218.305 99.02 218.29L128.44 203.88C128.612 203.795 128.755 203.676 128.846 203.541C128.938 203.406 128.971 203.264 128.94 203.14C128.38 200.93 102.01 215.71 99.41 216.77C98.7834 217.023 98.5434 217.46 98.69 218.08Z" stroke="#A16A4D" stroke-width="2"/>
<path d="M85.8 77.8501C81.32 78.6501 76.9233 78.2801 72.61 76.7401C72.3037 76.636 72.0353 76.4408 71.84 76.1801C69.7133 73.4134 68.0867 70.3534 66.96 67.0001C63.91 53.6701 65.62 42.1701 72.73 31.1401C82.84 15.4501 101.16 5.18006 119.25 1.45006C120.603 1.17006 121.527 1.6734 122.02 2.96006C128.61 19.9101 125.95 36.1201 117.47 51.7901C110.16 65.2801 100.71 73.8001 85.8 77.8501ZM116 6.29006C110.953 7.51673 106.19 9.42006 101.71 12.0001L97.75 14.2101C88.3433 19.9634 80.6433 27.4301 74.65 36.6101L70.79 45.2501C66.8 56.1101 69.14 63.0101 71.94 73.8801C72.0354 74.2407 72.2312 74.5662 72.5042 74.8179C72.7772 75.0696 73.1159 75.237 73.48 75.3001C82.28 76.8501 88.1 74.3101 95.97 70.3201C104.77 65.8501 110.79 58.5701 115.16 49.9201C119.66 41.0101 120.47 29.1801 120.95 19.0401C121.263 18.0801 121.267 16.9834 120.96 15.7501L120.21 7.75006L119.67 6.25006C119.618 6.10606 119.518 5.98444 119.387 5.90601C119.256 5.82758 119.101 5.7972 118.95 5.82006L116 6.29006Z" fill="#10510B"/>
<path d="M120.21 7.74992C118.52 7.23992 111.15 15.4799 109.84 16.8499C109.427 17.2833 109.503 17.4033 110.07 17.2099C114.05 15.8633 117.68 15.3766 120.96 15.7499C121.267 16.9833 121.263 18.0799 120.95 19.0399C116.877 18.3199 112.937 18.6199 109.13 19.9399C101.85 22.4499 94.04 33.6799 90.03 40.0299C89.6567 40.6232 89.7734 40.7466 90.38 40.3999C96.95 36.6999 108.55 31.7599 116.21 32.5999C117.563 32.7532 117.673 33.2066 116.54 33.9599C115.807 34.4533 114.707 34.8133 113.24 35.0399C104.5 36.4199 96.15 39.0732 88.19 42.9999C87.9769 43.105 87.7891 43.2166 87.6416 43.326C87.494 43.4354 87.3908 43.5394 87.34 43.6299L77.37 61.1499C76.9367 61.9099 77.14 62.1166 77.98 61.7699C86.9467 58.0566 96.2834 55.7799 105.99 54.9399C106.158 54.9272 106.323 54.9494 106.474 55.0049C106.625 55.0603 106.757 55.1475 106.86 55.2599C107.56 56.0199 107.27 56.5166 105.99 56.7499C95.67 58.6632 86.26 61.2532 77.76 64.5199C76.2867 65.0866 75.1367 66.3532 74.31 68.3199C73.18 70.9899 72.03 68.9399 72.58 67.3199C73.2734 65.2799 73.3134 63.2833 72.7 61.3299C71.38 57.1499 71.97 52.1899 71.99 47.8499C72 46.7399 72.53 45.2399 70.79 45.2499L74.65 36.6099C75.13 44.6699 75.2067 52.4299 74.88 59.8899C74.8334 60.9032 75.0634 60.9666 75.57 60.0799C78.87 54.2799 81.89 47.6899 85.22 42.5799C89.0134 36.7533 93.1867 31.1999 97.74 25.9199C97.9536 25.6807 98.0804 25.3742 98.1 25.0499C98.2134 23.1833 98.54 20.0899 99.08 15.7699C99.22 14.6833 98.7767 14.1633 97.75 14.2099L101.71 11.9999L100.95 20.2499C100.777 22.1366 101.327 22.4033 102.6 21.0499C106.393 17.0166 110.51 13.0233 114.95 9.06992C115.86 8.25992 118.21 7.52992 116 6.28992L118.95 5.81992C119.101 5.79705 119.256 5.82743 119.387 5.90586C119.518 5.9843 119.618 6.10591 119.67 6.24992L120.21 7.74992Z" fill="#3B9836"/>
<path d="M116 6.29004C118.21 7.53004 115.86 8.26004 114.95 9.07004C110.51 13.0234 106.393 17.0167 102.6 21.05C101.327 22.4034 100.777 22.1367 100.95 20.25L101.71 12C106.19 9.42004 110.953 7.51671 116 6.29004Z" fill="#45A03C"/>
<path d="M120.21 7.74999L120.96 15.75C117.68 15.3767 114.05 15.8633 110.07 17.21C109.503 17.4033 109.427 17.2833 109.84 16.85C111.15 15.48 118.52 7.23999 120.21 7.74999Z" fill="#45A03C"/>
<path d="M97.75 14.2099C98.7767 14.1632 99.22 14.6832 99.08 15.7699C98.54 20.0899 98.2134 23.1832 98.1 25.0499C98.0804 25.3742 97.9536 25.6807 97.74 25.9199C93.1867 31.1999 89.0134 36.7532 85.22 42.5799C81.89 47.6899 78.87 54.2799 75.57 60.0799C75.0634 60.9666 74.8334 60.9032 74.88 59.8899C75.2067 52.4299 75.13 44.6699 74.65 36.6099C80.6434 27.4299 88.3434 19.9632 97.75 14.2099Z" fill="#45A03C"/>
<path d="M120.95 19.0401C120.47 29.1801 119.66 41.0101 115.16 49.9201C110.79 58.5701 104.77 65.8501 95.9701 70.3201C88.1001 74.3101 82.2801 76.8501 73.4801 75.3001C73.1159 75.237 72.7772 75.0697 72.5043 74.8179C72.2313 74.5662 72.0355 74.2407 71.9401 73.8801C69.1401 63.0101 66.8001 56.1101 70.7901 45.2501C72.5301 45.2401 72 46.7401 71.99 47.8501C71.97 52.1901 71.38 57.1501 72.7 61.3301C73.3134 63.2834 73.2734 65.2801 72.5801 67.3201C72.0301 68.9401 73.18 70.9901 74.31 68.3201C75.1367 66.3534 76.2867 65.0868 77.7601 64.5201C86.2601 61.2534 95.67 58.6634 105.99 56.7501C107.27 56.5168 107.56 56.0201 106.86 55.2601C106.757 55.1477 106.625 55.0605 106.474 55.0051C106.323 54.9496 106.158 54.9274 105.99 54.9401C96.2834 55.7801 86.9467 58.0568 77.9801 61.7701C77.1401 62.1168 76.9367 61.9101 77.3701 61.1501L87.34 43.6301C87.3908 43.5396 87.494 43.4356 87.6416 43.3262C87.7891 43.2168 87.9769 43.1052 88.1901 43.0001C96.1501 39.0734 104.5 36.4201 113.24 35.0401C114.707 34.8134 115.807 34.4534 116.54 33.9601C117.673 33.2068 117.563 32.7534 116.21 32.6001C108.55 31.7601 96.95 36.7001 90.38 40.4001C89.7734 40.7468 89.6567 40.6234 90.03 40.0301C94.04 33.6801 101.85 22.4501 109.13 19.9401C112.937 18.6201 116.877 18.3201 120.95 19.0401Z" fill="#45A03C"/>
<path d="M66.96 66.9999C68.0867 70.3532 69.7134 73.4132 71.84 76.1799C72.0354 76.4406 72.3038 76.6358 72.61 76.7399C76.9234 78.2799 81.32 78.6499 85.8 77.8499L106.77 87.6599C106.914 87.7254 107.069 87.7602 107.222 87.7619C107.376 87.7637 107.525 87.7323 107.66 87.6699C140.5 72.2965 173.513 57.2765 206.7 42.6099C211.64 40.4199 222.97 40.9399 225.75 41.2499C259.32 44.9199 276 78.6299 275.13 109C274.77 121.53 272.58 145.43 261.38 153.74C256.153 157.613 250.113 161.043 243.26 164.03C211.92 177.683 177.503 193.563 140.01 211.67C117.36 222.6 93.74 231.96 70.19 240.77C60.42 244.42 46.87 243.16 37.86 237.9C33.48 235.34 29.36 233.5 25.62 229.93C22.41 226.87 18.71 223.77 16.06 220.75C0.590042 203.09 -2.52996 176.4 1.95004 154.23C3.87004 144.7 9.27004 136.57 16.26 127.89C19.54 123.83 26.67 120.08 30.47 118.5C45.01 112.453 59.53 106.35 74.03 100.19C74.3367 100.057 74.3434 99.9032 74.05 99.7299C61.3234 91.9832 48.6334 84.1465 35.98 76.2199C28.44 71.4899 32.28 63.3999 36.96 58.2599C40.2334 54.6732 43.7234 54.2632 47.43 57.0299C49.6034 58.6499 56.1134 61.9732 66.96 66.9999ZM46.24 118.51C42.88 119.07 39.8 120.387 37 122.46C31.11 124.43 26.95 125.27 21.83 130.32C3.58004 148.32 2.18004 178.38 10.96 201C18.55 220.09 35.17 234.98 55.95 237.53C65.9 238.75 76.13 232.57 84.25 227.46C87.35 226.8 90.2667 225.66 93 224.04L255.92 148.19C256.689 147.832 257.327 147.256 257.75 146.54C265.297 133.82 268.783 120.057 268.21 105.25L268.32 103.87C266.55 83.0499 255.06 56.6499 233.72 49.7499C224.57 46.7899 215.48 44.7899 206.76 48.5199C172.75 63.0599 139.46 78.7199 105.79 94.1199C105.539 94.2345 105.265 94.2888 104.991 94.2784C104.716 94.268 104.449 94.1931 104.21 94.0599C95.73 89.3999 86.33 85.9199 78.35 81.4599C66.8367 75.0332 55.16 68.6532 43.32 62.3199C43.1418 62.2252 42.939 62.1896 42.7423 62.2185C42.5457 62.2474 42.3658 62.3391 42.23 62.4799C40.2967 64.4532 39.0534 66.7932 38.5 69.4999C38.4789 69.5971 38.5132 69.7148 38.5979 69.8356C38.6827 69.9563 38.8132 70.0736 38.97 70.1699C48.25 75.9765 63.6167 85.3099 85.07 98.1699C89.82 101.02 86.46 102.32 83.72 103.49C71.3934 108.77 58.9 113.777 46.24 118.51Z" fill="#583422"/>
<path d="M268.32 103.87C265.927 103.95 263.043 104.62 259.67 105.88C245.023 111.347 232.027 117.37 220.68 123.95C220.527 124.041 220.396 124.154 220.298 124.282C220.199 124.41 220.135 124.549 220.11 124.69C220.003 125.357 220.39 125.467 221.27 125.02C237.503 116.86 253.15 110.27 268.21 105.25C268.783 120.057 265.297 133.82 257.75 146.54C257.327 147.256 256.689 147.832 255.92 148.19L93 224.04C92.6866 224.027 92.4666 223.92 92.34 223.72C92.2802 223.619 92.2626 223.479 92.2892 223.318C92.3158 223.156 92.3856 222.98 92.49 222.81C115.28 185.68 90.73 125.32 46.24 118.51C58.9 113.777 71.3933 108.77 83.72 103.49C86.46 102.32 89.82 101.02 85.07 98.17C63.6166 85.31 48.25 75.9767 38.97 70.17C38.8131 70.0738 38.6826 69.9565 38.5979 69.8357C38.5132 69.715 38.4788 69.5972 38.5 69.5C39.0533 66.7934 40.2966 64.4534 42.23 62.48C42.3658 62.3393 42.5456 62.2475 42.7422 62.2187C42.9389 62.1898 43.1417 62.2254 43.32 62.32C55.16 68.6534 66.8366 75.0334 78.35 81.46C86.33 85.92 95.73 89.4 104.21 94.06C104.449 94.1933 104.716 94.2681 104.991 94.2786C105.265 94.289 105.539 94.2347 105.79 94.12C139.46 78.72 172.75 63.06 206.76 48.52C215.48 44.79 224.57 46.79 233.72 49.75C255.06 56.65 266.55 83.05 268.32 103.87ZM257.4 83.87C255.94 83.14 244.48 88.21 244.5 89.32C244.501 89.3785 244.522 89.4335 244.561 89.4811C244.6 89.5286 244.656 89.5674 244.725 89.5944C244.793 89.6214 244.872 89.6359 244.957 89.6369C245.041 89.6379 245.127 89.6253 245.21 89.6C245.82 89.41 260.43 85.37 257.4 83.87ZM257.26 91.81C256.75 89.76 250.48 93.77 249.94 93.93C247.96 94.52 235.71 98.38 235.13 99.67C234.977 100.017 235.113 100.137 235.54 100.03C240.64 98.74 253.69 96.45 256.99 92.7C257.107 92.5669 257.193 92.4163 257.24 92.2612C257.287 92.1061 257.294 91.9512 257.26 91.81ZM262.52 97.06C262.367 96.3134 261.757 96.1667 260.69 96.62C250.33 101.02 238.353 106.42 224.76 112.82C224.64 112.88 223.3 114.26 224.76 113.68C236.053 109.18 247.227 104.42 258.28 99.4C259.39 98.89 261.04 98.83 262.19 97.89C262.319 97.7853 262.418 97.6525 262.476 97.506C262.535 97.3596 262.55 97.2053 262.52 97.06ZM139.84 98.85C139.575 98.747 139.284 98.7434 139.02 98.84C116.4 106.76 96.13 118.26 74.74 128.81C74.5715 128.893 74.4266 129 74.3184 129.122C74.2102 129.244 74.142 129.378 74.12 129.51C73.67 132.3 93.15 122.78 96.17 121.21C110.277 113.883 124.81 107.51 139.77 102.09C141.78 101.36 142.16 99.76 139.84 98.85ZM77.06 123.56C85.5733 119.133 95.84 114.277 107.86 108.99C110.34 107.91 107.94 107.14 106.69 107.67C96.3966 112.11 86.3966 117.15 76.69 122.79C76.5467 122.875 76.4311 122.99 76.3634 123.117C76.2957 123.243 76.2804 123.371 76.32 123.48C76.4066 123.747 76.6533 123.773 77.06 123.56ZM235.67 123.36C243.85 118.833 252.407 115.193 261.34 112.44C262.22 112.17 263.74 111.13 262.2 110.34C261.931 110.205 261.593 110.187 261.26 110.29C252.033 113.23 243.313 117.217 235.1 122.25C233.57 123.19 233.48 124.58 235.67 123.36ZM85.34 138.12C85.7133 138.6 85.9966 138.79 86.19 138.69C101.81 130.68 115.84 122.5 133.03 114.78C133.188 114.711 133.329 114.616 133.444 114.5C133.559 114.385 133.646 114.253 133.7 114.11C134.32 112.38 132.99 112.28 131.81 112.8C115.61 120 100.6 129.08 85.36 138.03C85.3522 138.034 85.3453 138.04 85.34 138.047C85.3346 138.054 85.3308 138.062 85.3289 138.07C85.327 138.079 85.327 138.088 85.3289 138.096C85.3308 138.105 85.3346 138.113 85.34 138.12ZM103.79 141.09C100.937 141.883 98.44 143.283 96.3 145.29C96.2549 145.333 96.217 145.383 96.1887 145.436C96.1605 145.49 96.1425 145.547 96.1359 145.602C96.1294 145.657 96.1343 145.711 96.1505 145.759C96.1667 145.807 96.1938 145.848 96.23 145.88C96.52 146.13 106.41 142.59 104.74 141.2C104.636 141.114 104.494 141.059 104.328 141.04C104.162 141.021 103.977 141.038 103.79 141.09ZM98.69 218.08C98.7003 218.121 98.7177 218.159 98.741 218.193C98.7643 218.226 98.7928 218.254 98.8245 218.275C98.8562 218.295 98.8902 218.307 98.924 218.309C98.9579 218.312 98.9906 218.305 99.02 218.29L128.44 203.88C128.612 203.796 128.755 203.676 128.846 203.541C128.938 203.406 128.971 203.264 128.94 203.14C128.38 200.93 102.01 215.71 99.41 216.77C98.7833 217.023 98.5433 217.46 98.69 218.08Z" fill="#A67156"/>
<path d="M257.4 83.8699C260.43 85.3699 245.82 89.4099 245.21 89.5999C245.127 89.6251 245.041 89.6377 244.957 89.6368C244.872 89.6358 244.793 89.6212 244.725 89.5942C244.656 89.5672 244.6 89.5285 244.561 89.4809C244.522 89.4334 244.501 89.3783 244.5 89.3199C244.48 88.2099 255.94 83.1399 257.4 83.8699Z" fill="#9B6244"/>
<path d="M256.99 92.7C253.69 96.45 240.64 98.74 235.54 100.03C235.113 100.137 234.977 100.017 235.13 99.67C235.71 98.38 247.96 94.52 249.94 93.93C250.48 93.77 256.75 89.76 257.26 91.81C257.294 91.9512 257.287 92.106 257.24 92.2611C257.193 92.4162 257.107 92.5668 256.99 92.7Z" fill="#9B6244"/>
<path d="M262.19 97.8899C261.04 98.8299 259.39 98.8899 258.28 99.3999C247.227 104.42 236.053 109.18 224.76 113.68C223.3 114.26 224.64 112.88 224.76 112.82C238.353 106.42 250.33 101.02 260.69 96.6199C261.757 96.1666 262.367 96.3133 262.52 97.0599C262.55 97.2052 262.535 97.3595 262.476 97.5059C262.418 97.6524 262.319 97.7852 262.19 97.8899Z" fill="#9B6244"/>
<path d="M139.84 98.85C142.16 99.76 141.78 101.36 139.77 102.09C124.81 107.51 110.277 113.883 96.17 121.21C93.15 122.78 73.67 132.3 74.12 129.51C74.142 129.378 74.2102 129.244 74.3184 129.122C74.4266 129 74.5715 128.893 74.74 128.81C96.13 118.26 116.4 106.76 139.02 98.84C139.284 98.7434 139.575 98.7469 139.84 98.85Z" fill="#9B6244"/>
<path d="M268.32 103.87L268.21 105.25C253.15 110.27 237.503 116.86 221.27 125.02C220.39 125.467 220.003 125.357 220.11 124.69C220.135 124.549 220.199 124.41 220.298 124.282C220.396 124.154 220.527 124.041 220.68 123.95C232.027 117.37 245.023 111.347 259.67 105.88C263.043 104.62 265.927 103.95 268.32 103.87Z" fill="#9B6244"/>
<path d="M77.06 123.56C76.6533 123.773 76.4067 123.747 76.32 123.48C76.2804 123.371 76.2958 123.243 76.3634 123.116C76.4311 122.99 76.5467 122.875 76.69 122.79C86.3967 117.15 96.3967 112.11 106.69 107.67C107.94 107.14 110.34 107.91 107.86 108.99C95.84 114.277 85.5733 119.133 77.06 123.56Z" fill="#9B6244"/>
<path d="M235.67 123.36C233.48 124.58 233.57 123.19 235.1 122.25C243.313 117.217 252.033 113.23 261.26 110.29C261.593 110.187 261.931 110.205 262.2 110.34C263.74 111.13 262.22 112.17 261.34 112.44C252.407 115.193 243.85 118.833 235.67 123.36Z" fill="#9B6244"/>
<path d="M85.34 138.12C85.3346 138.113 85.3309 138.105 85.329 138.097C85.327 138.088 85.327 138.079 85.3289 138.07C85.3309 138.062 85.3346 138.054 85.34 138.047C85.3454 138.04 85.3522 138.034 85.36 138.03C100.6 129.08 115.61 120 131.81 112.8C132.99 112.28 134.32 112.38 133.7 114.11C133.646 114.253 133.559 114.385 133.444 114.501C133.329 114.616 133.188 114.711 133.03 114.78C115.84 122.5 101.81 130.68 86.19 138.69C85.9967 138.79 85.7134 138.6 85.34 138.12Z" fill="#9B6244"/>
<path d="M46.24 118.51C90.73 125.32 115.28 185.68 92.49 222.81C92.3856 222.98 92.3159 223.156 92.2892 223.318C92.2626 223.479 92.2803 223.619 92.34 223.72C92.4667 223.92 92.6867 224.027 93 224.04C90.2667 225.66 87.35 226.8 84.25 227.46C99.84 208.86 99.72 187.89 92.24 165.51C85.23 144.57 67.6 123.74 44 122.21L37 122.46C39.8 120.387 42.88 119.07 46.24 118.51Z" fill="#8E593E"/>
<path d="M44 122.21C43.2667 123.297 42.3167 124 41.15 124.32C32.02 126.81 22.64 135.16 18.15 143.75C10.67 158.09 9.22005 176.64 13.45 192.24C16.17 202.26 24.97 212.48 32.79 218.63C40.45 224.65 60.39 232.76 68.79 224.66C84.81 209.21 86.92 193.82 80.67 172.88C76.71 159.61 71.69 148.83 62.03 138.98C57 133.84 52.55 135.3 46.03 137.88C39.85 140.33 37.5 140.98 33.57 144.8C27.14 151.04 23.86 156.54 22.26 165.68C19.75 179.99 21.85 193.48 30.14 205.85C36.48 215.3 55.22 227.06 63.64 211.94C68.43 203.34 67.99 194.54 68.02 184.99C68.05 175.55 65.48 167.24 61.52 158.94C57.06 149.58 54 146.7 43.58 151.7C42.6134 152.16 41.8834 152.867 41.39 153.82C36.0567 164.14 34.5334 175.03 36.82 186.49C38.23 193.61 42.27 200.86 50.27 202.53C52.2567 202.95 53.7967 202.303 54.89 200.59C60.66 191.54 55.78 178.73 50.81 170.83C50.7289 170.701 50.6138 170.597 50.4778 170.53C50.3418 170.463 50.1902 170.435 50.04 170.45C41.25 171.35 43.63 184.12 47.88 188.47C48.0512 188.647 48.2455 188.785 48.4248 188.857C48.6042 188.929 48.7558 188.93 48.85 188.86C49.9167 188.013 50.3734 186.89 50.22 185.49C50.2014 185.3 50.1549 185.125 50.0849 184.981C50.0149 184.838 49.9238 184.731 49.82 184.67L48.09 183.65C47.9386 183.557 47.8208 183.424 47.7612 183.279C47.7016 183.133 47.7048 182.987 47.77 182.87C49.51 179.71 55.73 188.27 49.46 190.95C49.164 191.073 48.8334 191.083 48.53 190.98C39.41 187.81 39 166.11 50.98 168.62C51.2982 168.685 51.5927 168.857 51.82 169.11C56.49 174.4 60.43 187.07 59.6 193.87C57.72 209.29 43.6 206.58 38.05 196.19C31.32 183.59 31.34 168.86 36.8 155.7C39.9 148.24 43.25 146.87 51.25 145.98C62.8 144.7 70.32 170.29 71.15 178.3C72.66 192.93 70.79 230.9 44.19 220.5C29.15 214.62 21.78 201.78 18.34 186.74C17.1 181.33 17.37 174.59 17.76 169.49C18.92 154.13 27.06 140.71 41.4 134.86C51.02 130.94 57.47 127.56 65.53 135.34C82 151.23 92.26 181.28 86.62 203.61C84.33 212.66 78.57 220.15 72.07 226.82C67.97 231.027 63.03 232.743 57.25 231.97C35.84 229.09 21.2 217.47 11.49 198.52C11.3234 198.193 11.16 198.193 11 198.52C10.6534 199.24 10.64 200.067 10.96 201C2.18005 178.38 3.58005 148.32 21.83 130.32C26.95 125.27 31.11 124.43 37 122.46L44 122.21Z" fill="#D9A286"/>
<path d="M44 122.21C67.6 123.74 85.23 144.57 92.24 165.51C99.72 187.89 99.84 208.86 84.25 227.46C76.13 232.57 65.9 238.75 55.95 237.53C35.17 234.98 18.55 220.09 10.96 201C10.64 200.067 10.6533 199.24 11 198.52C11.16 198.193 11.3233 198.193 11.49 198.52C21.2 217.47 35.84 229.09 57.25 231.97C63.03 232.743 67.97 231.027 72.07 226.82C78.57 220.15 84.33 212.66 86.62 203.61C92.26 181.28 82 151.23 65.53 135.34C57.47 127.56 51.02 130.94 41.4 134.86C27.06 140.71 18.92 154.13 17.76 169.49C17.37 174.59 17.1 181.33 18.34 186.74C21.78 201.78 29.15 214.62 44.19 220.5C70.79 230.9 72.66 192.93 71.15 178.3C70.32 170.29 62.8 144.7 51.25 145.98C43.25 146.87 39.9 148.24 36.8 155.7C31.34 168.86 31.32 183.59 38.05 196.19C43.6 206.58 57.72 209.29 59.6 193.87C60.43 187.07 56.49 174.4 51.82 169.11C51.5927 168.857 51.2982 168.685 50.98 168.62C39 166.11 39.41 187.81 48.53 190.98C48.8334 191.083 49.1639 191.073 49.46 190.95C55.73 188.27 49.51 179.71 47.77 182.87C47.7047 182.987 47.7016 183.133 47.7612 183.279C47.8208 183.424 47.9386 183.557 48.09 183.65L49.82 184.67C49.9238 184.731 50.0149 184.838 50.0849 184.981C50.1548 185.125 50.2013 185.3 50.22 185.49C50.3733 186.89 49.9167 188.013 48.85 188.86C48.7558 188.93 48.6041 188.929 48.4248 188.857C48.2454 188.785 48.0512 188.647 47.88 188.47C43.63 184.12 41.25 171.35 50.04 170.45C50.1901 170.435 50.3417 170.463 50.4778 170.53C50.6138 170.597 50.7289 170.701 50.81 170.83C55.78 178.73 60.66 191.54 54.89 200.59C53.7967 202.303 52.2567 202.95 50.27 202.53C42.27 200.86 38.23 193.61 36.82 186.49C34.5333 175.03 36.0567 164.14 41.39 153.82C41.8833 152.867 42.6134 152.16 43.58 151.7C54 146.7 57.06 149.58 61.52 158.94C65.48 167.24 68.05 175.55 68.02 184.99C67.99 194.54 68.43 203.34 63.64 211.94C55.22 227.06 36.48 215.3 30.14 205.85C21.85 193.48 19.75 179.99 22.26 165.68C23.86 156.54 27.14 151.04 33.57 144.8C37.5 140.98 39.85 140.33 46.03 137.88C52.55 135.3 57 133.84 62.03 138.98C71.69 148.83 76.71 159.61 80.67 172.88C86.92 193.82 84.81 209.21 68.79 224.66C60.39 232.76 40.45 224.65 32.79 218.63C24.97 212.48 16.17 202.26 13.45 192.24C9.22001 176.64 10.67 158.09 18.15 143.75C22.64 135.16 32.02 126.81 41.15 124.32C42.3167 124 43.2667 123.297 44 122.21Z" fill="#E0B29A"/>
<path d="M104.74 141.2C106.41 142.59 96.52 146.13 96.23 145.88C96.1938 145.848 96.1668 145.807 96.1506 145.759C96.1344 145.711 96.1294 145.658 96.136 145.602C96.1426 145.547 96.1606 145.49 96.1888 145.437C96.217 145.383 96.2549 145.333 96.3 145.29C98.44 143.283 100.937 141.883 103.79 141.09C103.977 141.038 104.162 141.021 104.328 141.04C104.494 141.059 104.636 141.114 104.74 141.2Z" fill="#9B6244"/>
<path d="M98.69 218.08C98.5434 217.46 98.7834 217.023 99.41 216.77C102.01 215.71 128.38 200.93 128.94 203.14C128.971 203.264 128.938 203.406 128.846 203.541C128.755 203.676 128.612 203.795 128.44 203.88L99.02 218.29C98.9907 218.305 98.9579 218.312 98.9241 218.309C98.8902 218.306 98.8562 218.295 98.8246 218.274C98.7929 218.254 98.7644 218.226 98.7411 218.193C98.7178 218.159 98.7004 218.121 98.69 218.08Z" fill="#9B6244"/>
<path d="M408.065 72.1426V181H378.724V72.1426H408.065ZM445.764 182.276C440.555 182.276 435.948 181.425 431.944 179.724C427.975 177.988 424.857 175.366 422.589 171.858C420.321 168.35 419.187 163.885 419.187 158.463C419.187 153.998 419.949 150.189 421.473 147.035C422.996 143.846 425.123 141.242 427.851 139.222C430.58 137.202 433.751 135.66 437.366 134.597C441.015 133.534 444.949 132.843 449.165 132.524C453.737 132.17 457.404 131.745 460.168 131.249C462.968 130.717 464.987 129.991 466.228 129.07C467.468 128.113 468.088 126.855 468.088 125.296V125.083C468.088 122.957 467.273 121.327 465.643 120.193C464.013 119.059 461.922 118.492 459.371 118.492C456.571 118.492 454.286 119.112 452.514 120.352C450.778 121.557 449.732 123.418 449.378 125.933H422.376C422.731 120.973 424.308 116.401 427.107 112.22C429.942 108.003 434.07 104.637 439.492 102.121C444.913 99.5696 451.681 98.2939 459.796 98.2939C465.643 98.2939 470.887 98.9849 475.529 100.367C480.171 101.713 484.122 103.609 487.383 106.054C490.643 108.464 493.123 111.299 494.824 114.559C496.56 117.783 497.428 121.291 497.428 125.083V181H470.001V169.519H469.364C467.734 172.566 465.749 175.029 463.41 176.907C461.107 178.785 458.467 180.15 455.491 181C452.55 181.85 449.307 182.276 445.764 182.276ZM455.331 163.778C457.564 163.778 459.654 163.318 461.603 162.396C463.588 161.475 465.2 160.146 466.44 158.41C467.68 156.674 468.301 154.565 468.301 152.085V145.281C467.521 145.6 466.688 145.901 465.802 146.185C464.952 146.468 464.031 146.734 463.038 146.982C462.082 147.23 461.054 147.46 459.956 147.673C458.892 147.886 457.776 148.081 456.607 148.258C454.339 148.612 452.479 149.197 451.026 150.012C449.608 150.791 448.545 151.766 447.837 152.935C447.163 154.069 446.827 155.345 446.827 156.762C446.827 159.03 447.624 160.766 449.219 161.971C450.813 163.176 452.851 163.778 455.331 163.778ZM525.905 181L505.494 99.357H534.835L544.19 149.108H544.828L555.246 99.357H583.736L594.579 148.683H595.217L604.146 99.357H633.487L613.076 181H581.397L569.916 137.202H569.065L557.584 181H525.905ZM680.288 213.317C672.102 213.317 665.086 212.148 659.239 209.809C653.428 207.506 648.91 204.316 645.685 200.241C642.496 196.202 640.707 191.56 640.317 186.315H668.594C668.878 188.052 669.587 189.451 670.721 190.514C671.854 191.577 673.307 192.339 675.079 192.8C676.886 193.296 678.906 193.544 681.138 193.544C684.93 193.544 688.066 192.623 690.547 190.78C693.062 188.938 694.32 185.607 694.32 180.787V166.968H693.47C692.407 169.732 690.777 172.088 688.58 174.037C686.383 175.95 683.743 177.421 680.66 178.449C677.577 179.441 674.193 179.937 670.508 179.937C664.696 179.937 659.346 178.59 654.456 175.897C649.601 173.204 645.703 168.934 642.762 163.087C639.856 157.241 638.403 149.604 638.403 140.178C638.403 130.327 639.927 122.319 642.975 116.153C646.058 109.988 650.026 105.47 654.881 102.599C659.771 99.7291 664.909 98.2939 670.295 98.2939C674.335 98.2939 677.878 99.0026 680.926 100.42C683.973 101.802 686.525 103.662 688.58 106.001C690.635 108.304 692.194 110.838 693.257 113.602H693.895V99.357H723.236V180.787C723.236 187.697 721.446 193.562 717.867 198.381C714.324 203.236 709.327 206.939 702.878 209.49C696.429 212.041 688.899 213.317 680.288 213.317ZM681.351 159.101C684.044 159.101 686.347 158.357 688.261 156.869C690.21 155.345 691.698 153.183 692.726 150.384C693.789 147.549 694.32 144.147 694.32 140.178C694.32 136.139 693.789 132.684 692.726 129.814C691.698 126.908 690.21 124.693 688.261 123.17C686.347 121.61 684.044 120.831 681.351 120.831C678.658 120.831 676.355 121.61 674.441 123.17C672.563 124.693 671.11 126.908 670.083 129.814C669.09 132.684 668.594 136.139 668.594 140.178C668.594 144.218 669.09 147.655 670.083 150.49C671.11 153.29 672.563 155.433 674.441 156.922C676.355 158.375 678.658 159.101 681.351 159.101Z" fill="#EAEAEA"/>
</svg>
